<svg width="1280" height="760" viewBox="0 0 1280 760" fill="none" xmlns="http://www.w3.org/2000/svg">
  <defs>
    <linearGradient id="bg" x1="0" y1="0" x2="1280" y2="760" gradientUnits="userSpaceOnUse">
      <stop offset="0" stop-color="#F9FCFF"/>
      <stop offset="1" stop-color="#EFF7FF"/>
    </linearGradient>
    <linearGradient id="blue" x1="0" y1="0" x2="1" y2="1">
      <stop offset="0" stop-color="#0877FF"/>
      <stop offset="1" stop-color="#35C2FF"/>
    </linearGradient>
    <linearGradient id="purple" x1="0" y1="0" x2="1" y2="1">
      <stop offset="0" stop-color="#7C3AED"/>
      <stop offset="1" stop-color="#38BDF8"/>
    </linearGradient>
    <filter id="shadow" x="-20%" y="-30%" width="140%" height="180%">
      <feDropShadow dx="0" dy="14" stdDeviation="18" flood-color="#0F3B66" flood-opacity=".13"/>
    </filter>
    <marker id="arrow" markerWidth="12" markerHeight="12" refX="10" refY="6" orient="auto">
      <path d="M2 2L10 6L2 10" stroke="#1976EA" stroke-width="2" stroke-linecap="round" stroke-linejoin="round"/>
    </marker>
    <style>
      .title{font-family:"Inter","Segoe UI","Microsoft YaHei",sans-serif;font-size:34px;font-weight:800;fill:#0F172A}
      .subtitle{font-family:"Inter","Segoe UI","Microsoft YaHei",sans-serif;font-size:16px;font-weight:500;fill:#64748B}
      .group{font-family:"Inter","Segoe UI","Microsoft YaHei",sans-serif;font-size:15px;font-weight:800;fill:#0B7CFF;letter-spacing:.16em}
      .label{font-family:"Inter","Segoe UI","Microsoft YaHei",sans-serif;font-size:18px;font-weight:760;fill:#0F172A}
      .small{font-family:"Inter","Segoe UI","Microsoft YaHei",sans-serif;font-size:13px;font-weight:500;fill:#64748B}
      .white{fill:#FFFFFF}
    </style>
  </defs>

  <rect width="1280" height="760" rx="32" fill="url(#bg)"/>
  <circle cx="1080" cy="120" r="230" fill="#DDEEFF" opacity=".7"/>
  <circle cx="180" cy="650" r="260" fill="#E9F4FF" opacity=".85"/>
  <path d="M96 118C334 18 568 70 762 144C936 210 1086 174 1210 92" stroke="#DCEEFF" stroke-width="18" stroke-linecap="round"/>

  <text x="64" y="70" class="title">能力架构</text>
  <text x="64" y="102" class="subtitle">前端体验、角色核心、模型接口与本地存储协同工作</text>

  <g filter="url(#shadow)">
    <rect x="64" y="150" width="272" height="472" rx="28" fill="#FFFFFF" opacity=".9"/>
    <rect x="64.5" y="150.5" width="271" height="471" rx="27.5" stroke="#D8E8FA"/>
    <text x="96" y="190" class="group">FRONTEND UI</text>
    <g transform="translate(96 226)">
      <rect width="208" height="62" rx="18" fill="#F3F8FF" stroke="#CFE2F8"/>
      <text x="104" y="37" text-anchor="middle" class="label">英灵选择殿</text>
    </g>
    <g transform="translate(96 310)">
      <rect width="208" height="62" rx="18" fill="#F3F8FF" stroke="#CFE2F8"/>
      <text x="104" y="37" text-anchor="middle" class="label">召唤仪式</text>
    </g>
    <g transform="translate(96 394)">
      <rect width="208" height="62" rx="18" fill="#F3F8FF" stroke="#CFE2F8"/>
      <text x="104" y="37" text-anchor="middle" class="label">设置面板</text>
    </g>
    <g transform="translate(96 478)">
      <rect width="208" height="62" rx="18" fill="#F3F8FF" stroke="#CFE2F8"/>
      <text x="104" y="37" text-anchor="middle" class="label">桌面伙伴</text>
    </g>
  </g>

  <g filter="url(#shadow)">
    <rect x="400" y="150" width="320" height="472" rx="28" fill="#FFFFFF"/>
    <rect x="400.5" y="150.5" width="319" height="471" rx="27.5" stroke="#D8E8FA"/>
    <text x="432" y="190" class="group">CHARACTER CORE</text>
    <g transform="translate(448 222)">
      <rect width="224" height="74" rx="22" fill="url(#blue)"/>
      <text x="112" y="36" text-anchor="middle" class="label white">角色档案</text>
      <text x="112" y="56" text-anchor="middle" class="small white" opacity=".85">身份 / 标签 / 人设</text>
    </g>
    <g transform="translate(448 326)">
      <rect width="224" height="74" rx="22" fill="#F5F9FF" stroke="#CFE2F8"/>
      <text x="112" y="36" text-anchor="middle" class="label">灵魂蒸馏</text>
      <text x="112" y="56" text-anchor="middle" class="small">性格 · 语言 · 心智</text>
    </g>
    <g transform="translate(448 430)">
      <rect width="224" height="74" rx="22" fill="#F5F9FF" stroke="#CFE2F8"/>
      <text x="112" y="36" text-anchor="middle" class="label">对话记忆</text>
      <text x="112" y="56" text-anchor="middle" class="small">本地会话历史</text>
    </g>
    <g transform="translate(448 534)">
      <rect width="224" height="58" rx="20" fill="#F5F9FF" stroke="#CFE2F8"/>
      <text x="112" y="36" text-anchor="middle" class="label">形象资产</text>
    </g>
  </g>

  <g filter="url(#shadow)">
    <rect x="784" y="150" width="432" height="210" rx="28" fill="#FFFFFF"/>
    <rect x="784.5" y="150.5" width="431" height="209" rx="27.5" stroke="#D8E8FA"/>
    <text x="816" y="190" class="group">MODEL APIs</text>
    <g transform="translate(820 224)">
      <rect width="164" height="70" rx="20" fill="#F5F9FF" stroke="#CFE2F8"/>
      <text x="82" y="34" text-anchor="middle" class="label">Chat API</text>
      <text x="82" y="54" text-anchor="middle" class="small">DeepSeek 兼容</text>
    </g>
    <g transform="translate(1008 224)">
      <rect width="164" height="70" rx="20" fill="#F5F9FF" stroke="#CFE2F8"/>
      <text x="82" y="34" text-anchor="middle" class="label">Image API</text>
      <text x="82" y="54" text-anchor="middle" class="small">OpenAI 兼容</text>
    </g>
    <g transform="translate(820 302)">
      <rect width="352" height="34" rx="17" fill="#ECF6FF"/>
      <text x="176" y="23" text-anchor="middle" class="small">Ark / Seedance 可选视频与舞台生成能力</text>
    </g>
  </g>

  <g filter="url(#shadow)">
    <rect x="784" y="412" width="432" height="210" rx="28" fill="#FFFFFF"/>
    <rect x="784.5" y="412.5" width="431" height="209" rx="27.5" stroke="#D8E8FA"/>
    <text x="816" y="452" class="group">LOCAL STORAGE</text>
    <g transform="translate(820 486)">
      <rect width="104" height="70" rx="20" fill="#F5F9FF" stroke="#CFE2F8"/>
      <text x="52" y="34" text-anchor="middle" class="label">角色</text>
      <text x="52" y="54" text-anchor="middle" class="small">Profiles</text>
    </g>
    <g transform="translate(948 486)">
      <rect width="104" height="70" rx="20" fill="#F5F9FF" stroke="#CFE2F8"/>
      <text x="52" y="34" text-anchor="middle" class="label">会话</text>
      <text x="52" y="54" text-anchor="middle" class="small">Chats</text>
    </g>
    <g transform="translate(1076 486)">
      <rect width="104" height="70" rx="20" fill="#F5F9FF" stroke="#CFE2F8"/>
      <text x="52" y="34" text-anchor="middle" class="label">场景</text>
      <text x="52" y="54" text-anchor="middle" class="small">Scenes</text>
    </g>
  </g>

  <path d="M336 257H438" stroke="#1976EA" stroke-width="2.5" marker-end="url(#arrow)"/>
  <path d="M336 341H438" stroke="#1976EA" stroke-width="2.5" marker-end="url(#arrow)"/>
  <path d="M336 425H438" stroke="#1976EA" stroke-width="2.5" marker-end="url(#arrow)"/>
  <path d="M336 509H438" stroke="#1976EA" stroke-width="2.5" marker-end="url(#arrow)"/>

  <path d="M672 360C724 300 744 248 810 250" stroke="#1976EA" stroke-width="2.5" fill="none" marker-end="url(#arrow)"/>
  <path d="M672 570C744 552 760 522 810 522" stroke="#1976EA" stroke-width="2.5" fill="none" marker-end="url(#arrow)"/>
  <path d="M1000 360C1000 388 1000 392 1000 404" stroke="#1976EA" stroke-width="2.5" marker-end="url(#arrow)"/>

  <rect x="64" y="664" width="1152" height="54" rx="20" fill="#FFFFFF" opacity=".78" stroke="#D8E8FA"/>
  <text x="92" y="698" class="subtitle">Local-first by default · Bring your own model keys · MIT licensed desktop AI companion studio</text>
</svg>
